# xmcd
#
# Track frame offsets: 
#        150
#        8927
#        19332
#        30575
#        43645
#        59932
#        69922
#        76237
#        93417
#        142372
#        159147
#        175717
#        199250
#
# Disc length: 2818 seconds
#
# Revision: 0
# Processed by: cddbd v1.5.2PL0 Copyright (c) Steve Scherf et al.
# Submitted via: ExactAudioCopy v0.99pb5
#
DISCID=ad0b000d
DTITLE=The Beatles - Songs From The Past, Vol. 5
DYEAR=1989
DGENRE=Rock
TTITLE0=Hitch Hike
TTITLE1=You Can't Do That
TTITLE2=The Hippy Hippy Shake
TTITLE3=Two Of Us
TTITLE4=All Along The Watchtower \\ Short Fat Fanny
TTITLE5=The Midnight Special
TTITLE6=What Do You Wanna Make Those Eyes At Me For
TTITLE7=Gimme Some Truth
TTITLE8=All Things Must Pass
TTITLE9=One After 909
TTITLE10=All Things Must Pass
TTITLE11=Across The Universe
TTITLE12=A Case Of The Blues \\ Gone, Gone, Gone
EXTD=
EXTT0=
EXTT1=
EXTT2=
EXTT3=
EXTT4=
EXTT5=
EXTT6=
EXTT7=
EXTT8=
EXTT9=
EXTT10=
EXTT11=
EXTT12=
PLAYORDER=
